<svg width="40" height="40" viewBox="0 0 40 40" fill="none" xmlns="http://www.w3.org/2000/svg">
<circle cx="20" cy="20" r="20" fill="#2B6BF3"/>
<path fill-rule="evenodd" clip-rule="evenodd" d="M15.4658 9.06646C16.6392 9.01306 17.0141 9 20.0015 9H19.9981C22.9864 9 23.36 9.01306 24.5333 9.06646C25.7044 9.12008 26.5042 9.30548 27.2054 9.5775C27.9296 9.85823 28.5415 10.2341 29.1534 10.8459C29.7653 11.4574 30.1411 12.0711 30.423 12.7945C30.6934 13.494 30.879 14.2933 30.934 15.4643C30.9867 16.6377 31.0005 17.0126 31.0005 20C31.0005 22.9874 30.9867 23.3614 30.934 24.5348C30.879 25.7053 30.6934 26.5049 30.423 27.2045C30.1411 27.9278 29.7653 28.5415 29.1534 29.1529C28.5422 29.7648 27.9294 30.1415 27.2061 30.4225C26.5063 30.6945 25.706 30.8799 24.5349 30.9335C23.3616 30.9869 20.0001 31 20.0001 31C20.0001 31 16.6382 30.9869 15.4649 30.9335C14.2941 30.8799 13.4945 30.6945 12.7946 30.4225C12.0716 30.1415 11.4579 29.7648 10.8467 29.1529C10.235 28.5415 9.85918 27.9278 9.57799 27.2043C9.3062 26.5049 9.1208 25.7056 9.06695 24.5345C9.01378 23.3612 9.00049 22.9874 9.00049 20C9.00049 17.0126 9.01424 16.6374 9.06672 15.4641C9.11943 14.2935 9.30505 13.494 9.57777 12.7943C9.85964 12.0711 10.2355 11.4574 10.8474 10.8459C11.4588 10.2343 12.0725 9.85846 12.796 9.5775C13.4954 9.30548 14.2948 9.12008 15.4658 9.06646ZM20.0005 11C20.0005 11 16.5712 10.9956 15.5564 11.0414C14.4839 11.0907 13.9016 11.2694 13.5139 11.4207C13.0005 11.6205 12.6338 11.8588 12.2488 12.2438C11.8638 12.6288 11.625 12.9955 11.4257 13.5088C11.2751 13.8966 11.0959 14.4787 11.0468 15.5512C10.9941 16.7108 11.0005 20 11.0005 20C11.0005 20 10.9941 23.2805 11.0468 24.4401C11.0957 25.5126 11.2751 26.0947 11.4257 26.482C11.6255 26.9955 11.8638 27.3613 12.2488 27.7463C12.6338 28.1313 13.0005 28.3696 13.5139 28.569C13.9018 28.7196 14.4839 28.8988 15.5564 28.9483C16.716 29.001 20.0005 29 20.0005 29C20.0005 29 23.2868 29.001 24.4464 28.9483C25.5189 28.8992 26.1014 28.7205 26.4887 28.5692C27.0023 28.3698 27.3678 28.1315 27.7528 27.7465C28.1378 27.3617 28.3766 26.9962 28.576 26.4829C28.7266 26.0956 28.9058 25.5135 28.9548 24.441C29.0075 23.2814 29.0005 20 29.0005 20C29.0005 20 29.0075 16.7135 28.9548 15.5539C28.906 14.4814 28.7266 13.8993 28.576 13.5121C28.3762 12.9987 28.1378 12.6321 27.7528 12.2471C27.368 11.8621 27.0021 11.6237 26.4887 11.4243C26.101 11.2738 25.5189 11.0946 24.4464 11.0455C23.2865 10.9928 20.0005 11 20.0005 11Z" fill="white"/>
<path fill-rule="evenodd" clip-rule="evenodd" d="M20.0001 24C22.2092 24 24.0001 22.2091 24.0001 20C24.0001 17.7909 22.2092 16 20.0001 16C17.7909 16 16.0001 17.7909 16.0001 20C16.0001 22.2091 17.7909 24 20.0001 24ZM20.0001 26C23.3138 26 26.0001 23.3137 26.0001 20C26.0001 16.6863 23.3138 14 20.0001 14C16.6864 14 14.0001 16.6863 14.0001 20C14.0001 23.3137 16.6864 26 20.0001 26Z" fill="white"/>
<path fill-rule="evenodd" clip-rule="evenodd" d="M26.0001 13C25.448 13 25.0001 13.4475 25.0001 13.9998C25.0001 14.552 25.448 15 26.0001 15C26.5522 15 27.0001 14.552 27.0001 13.9998C27.0001 13.4476 26.5522 13 26.0001 13Z" fill="white"/>
</svg>
