<svg width="85" height="64" viewBox="0 0 85 64" fill="none" xmlns="http://www.w3.org/2000/svg">
<g clip-path="url(#clip0_22_232)">
<path d="M14.0781 42.843L42.5 0.132202L70.9219 42.843H64.2812L42.5 10.4463L20.7188 42.843H14.0781Z" fill="#D9E3F6"/>
<path d="M4.38281 57.3884L13.2812 44.1653H24.5703L31.875 54.2149H25.1016L30.8125 62.5454L34.9297 56.3306L26.1641 44.1653H33.3359L38.3828 51.3058L43.1641 44.1653H49.9375L36.7891 64H0L3.58594 58.7107H21.9141L16.0703 50.3801H22.7109L21.7812 49.0578H16.6016L10.7578 57.3884H4.38281Z" fill="#D9E3F6"/>
<path d="M51.5312 44.1653H58.3047L55.7812 48H59.7656V53.2892H52.1953L48.6094 58.7107H60.0312V64H38.25L51.5312 44.1653Z" fill="#D9E3F6"/>
<path d="M61.3594 44.1653H71.7188L75.0391 49.0578H66.8047V50.3801H75.8359L79.2891 55.5372H66.8047V58.7104H81.4141L85 64H61.3594V44.1653Z" fill="#D9E3F6"/>
<path d="M37.5234 18.5269C37.5234 18.5269 25.5177 36.052 17.825 47.2813" stroke="#2B6BF3" stroke-width="2" stroke-linejoin="round"/>
<path d="M51.9726 12.405L51.1418 12.9603L51.9726 12.405ZM27.6882 19.7604C28.5564 19.1691 30.3971 18.315 32.786 17.3909C35.1444 16.4786 37.9507 15.5303 40.6866 14.7381C43.4289 13.9441 46.0679 13.3165 48.1005 13.0331C49.1227 12.8907 49.944 12.8423 50.53 12.8867C50.8233 12.9089 51.0153 12.9516 51.128 12.9929C51.2449 13.0359 51.2012 13.0489 51.1418 12.9603L52.8034 11.8497C52.5433 11.4622 52.1604 11.244 51.8156 11.1173C51.4665 10.9891 51.0744 10.9238 50.6773 10.8938C49.8827 10.8336 48.8985 10.9033 47.8199 11.0537C45.6512 11.356 42.9083 12.0128 40.1257 12.8185C37.3366 13.626 34.475 14.5927 32.0598 15.527C29.6752 16.4495 27.637 17.3737 26.5582 18.1086L27.6882 19.7604ZM51.1418 12.9603C51.2009 13.0484 51.2982 13.307 51.0445 13.9553C50.7978 14.5855 50.2908 15.381 49.5281 16.3071C48.0117 18.1481 45.6577 20.2995 42.9993 22.3854C40.3485 24.4654 37.4359 26.4484 34.8299 27.9586C32.1777 29.4955 29.9796 30.4607 28.7133 30.6397L28.9976 32.6186C30.69 32.3795 33.1893 31.2221 35.837 29.6878C38.5309 28.1267 41.5205 26.0901 44.2378 23.9579C46.9475 21.8317 49.4276 19.5785 51.0748 17.5786C51.8938 16.5842 52.5509 15.6002 52.9086 14.6863C53.2593 13.7905 53.4013 12.7404 52.8034 11.8497L51.1418 12.9603Z" fill="#2B6BF3"/>
<path d="M36.872 35.5489L37.6554 34.9264L36.872 35.5489ZM41.024 27.367C39.7203 28.3306 38.2368 29.9939 37.192 31.5458C36.6684 32.3235 36.2202 33.124 35.9629 33.8392C35.8348 34.1953 35.7371 34.5757 35.7227 34.9479C35.7085 35.3163 35.7737 35.7784 36.0886 36.1714L37.6554 34.9264C37.7487 35.0428 37.7219 35.1216 37.7256 35.0242C37.7293 34.9305 37.7596 34.7626 37.8498 34.5118C38.0291 34.0134 38.3788 33.3667 38.8568 32.6567C39.8152 31.2332 41.1497 29.7593 42.2185 28.9692L41.024 27.367ZM36.0886 36.1714C36.3449 36.4911 36.69 36.5841 36.9107 36.6068C37.1277 36.6292 37.3276 36.5977 37.4737 36.5647C37.7711 36.4975 38.0946 36.3646 38.4001 36.2191C39.0265 35.9206 39.7962 35.4619 40.5667 34.9614C42.1043 33.9626 43.7962 32.6982 44.5922 31.9638L43.23 30.5002C42.5519 31.1259 40.965 32.3202 39.4718 33.29C38.727 33.7738 38.0434 34.1769 37.5352 34.419C37.2734 34.5437 37.1092 34.6008 37.0307 34.6186C36.9889 34.628 37.0288 34.6127 37.1177 34.6218C37.2104 34.6314 37.4593 34.6818 37.6554 34.9264L36.0886 36.1714Z" fill="#2B6BF3"/>
<path d="M36.5489 42.0942L35.5468 42.0949C35.5468 42.4295 35.7152 42.7417 35.9953 42.9263C36.2754 43.111 36.6298 43.1435 36.9393 43.0129L36.5489 42.0942ZM49.421 24.8882C46.1208 27.2189 42.6893 30.8505 40.0931 34.1504C38.791 35.8055 37.6808 37.4002 36.8903 38.7348C36.4957 39.401 36.1714 40.0182 35.9425 40.5562C35.727 41.0627 35.5468 41.6095 35.5468 42.0949L37.5511 42.0935C37.5511 42.0305 37.5918 41.7946 37.7879 41.3336C37.9706 40.9041 38.2485 40.369 38.6165 39.7477C39.3512 38.5073 40.4074 36.986 41.6705 35.3805C44.2048 32.1593 47.499 28.6915 50.5797 26.5157L49.421 24.8882ZM36.9393 43.0129C38.3426 42.4209 44.9756 40.5105 53.6131 38.9825C62.2299 37.4582 72.7064 36.3399 81.7975 37.2681L82.0033 35.2827C72.6418 34.3269 61.9539 35.4803 53.2639 37.0176C44.5946 38.5512 37.7782 40.4921 36.1585 41.1754L36.9393 43.0129Z" fill="#2B6BF3"/>
<path d="M53.7246 24.9651C53.2545 25.5067 51.5051 27.5915 49.7194 29.8166C47.9595 32.0094 46.0762 34.446 45.409 35.6415L47.1604 36.6097C47.7272 35.5941 49.4834 33.3057 51.2843 31.0617C53.0593 28.8499 54.7918 26.786 55.2402 26.2693L53.7246 24.9651Z" fill="#2B6BF3"/>
<path d="M59.1035 25.5178L60.0595 25.2219C60.0382 25.1539 60.0096 25.0884 59.9743 25.0264L59.1035 25.5178ZM50.6385 30.5657L51.1694 29.72C50.7312 29.4461 50.1567 29.549 49.8429 29.9577C49.5291 30.3663 49.5791 30.9465 49.9584 31.2971L50.6385 30.5657ZM52.0218 29.1634C52.7288 28.4182 54.338 27.3779 55.9092 26.7042C56.6893 26.3696 57.379 26.1614 57.8787 26.106C58.481 26.0392 58.3542 26.2226 58.2327 26.0091L59.9743 25.0264C59.4355 24.0794 58.3326 24.0458 57.6532 24.1212C56.8712 24.2079 55.9738 24.5009 55.1146 24.8694C53.4071 25.6016 51.5287 26.7742 50.5653 27.7895L52.0218 29.1634ZM58.1476 25.8136C58.0948 25.6451 58.1836 25.5955 58.0828 25.7695C57.9915 25.9269 57.8088 26.1503 57.5108 26.4264C56.9211 26.9727 56.0388 27.5807 55.0642 28.1313C54.0938 28.6797 53.0839 29.1419 52.2623 29.4156C51.8485 29.5534 51.5156 29.6322 51.2769 29.6598C50.9828 29.6938 51.0221 29.628 51.1694 29.72L50.1077 31.4113C50.5768 31.7045 51.1391 31.6866 51.5117 31.6435C51.9398 31.594 52.4174 31.4707 52.9004 31.3098C53.8723 30.9861 55.0011 30.4645 56.0545 29.8692C57.1039 29.2762 58.1308 28.5808 58.8758 27.8907C59.245 27.5486 59.5861 27.1705 59.8174 26.7716C60.0391 26.3891 60.2493 25.8283 60.0595 25.2219L58.1476 25.8136ZM49.9584 31.2971C50.822 32.0957 52.4305 32.9871 53.9463 33.7367C55.5019 34.5061 57.1027 35.1939 58.0566 35.5738L58.7963 33.7194C57.885 33.3565 56.3342 32.6903 54.8334 31.948C53.2927 31.1861 51.9397 30.4084 51.3187 29.8342L49.9584 31.2971Z" fill="#2B6BF3"/>
<path d="M68.8852 24.8683L69.6239 24.1941C69.5544 24.1185 69.4735 24.0541 69.3843 24.0031L68.8852 24.8683ZM60.937 33.5748L60.0889 34.1064L60.937 33.5748ZM69.3843 24.0031C68.1589 23.3023 66.7757 23.7314 65.6998 24.3553C64.5769 25.0064 63.4659 26.0432 62.5308 27.1595C61.5922 28.2799 60.7782 29.5434 60.2809 30.6979C60.033 31.2734 59.8476 31.8591 59.7811 32.4098C59.7163 32.9453 59.75 33.5704 60.0889 34.1064L61.785 33.0431C61.7926 33.055 61.7332 32.9619 61.7711 32.6484C61.8071 32.3501 61.92 31.9561 62.1231 31.4845C62.5279 30.5446 63.227 29.4442 64.0701 28.4378C64.9166 27.4272 65.8557 26.5744 66.7087 26.0797C67.6086 25.5579 68.1268 25.5853 68.386 25.7335L69.3843 24.0031ZM60.0889 34.1064C60.2803 34.4089 60.5638 34.5374 60.7621 34.5869C60.9502 34.6339 61.1195 34.6274 61.2295 34.6163C61.4521 34.5938 61.6754 34.5252 61.8621 34.4567C62.2521 34.3136 62.7307 34.0768 63.2407 33.7878C64.2702 33.2044 65.5536 32.3359 66.7353 31.3495C67.9026 30.3751 69.045 29.2246 69.716 28.0658C70.053 27.4839 70.3095 26.8349 70.3405 26.1613C70.3731 25.453 70.1518 24.7674 69.6239 24.1941L68.1464 25.5425C68.2958 25.7047 68.3477 25.8645 68.3382 26.0698C68.3272 26.3098 68.2264 26.6426 67.9795 27.069C67.4827 27.9269 66.5509 28.8991 65.4475 29.8202C64.3584 30.7293 63.1742 31.5292 62.249 32.0535C61.7816 32.3184 61.4112 32.4953 61.169 32.5842C61.0396 32.6316 61.001 32.6335 61.0271 32.6309C61.0388 32.6297 61.1262 32.6204 61.2501 32.6514C61.3841 32.6849 61.6211 32.784 61.785 33.0431L60.0889 34.1064Z" fill="#2B6BF3"/>
</g>
<defs>
<clipPath id="clip0_22_232">
<rect width="85" height="64" fill="white"/>
</clipPath>
</defs>
</svg>
