<svg width="64" height="48" viewBox="0 0 64 48" fill="none" xmlns="http://www.w3.org/2000/svg">
<g clip-path="url(#clip0_1573_450)">
<path d="M10.6 32.1322L32 0.0991211L53.4 32.1322H48.4L32 7.83466L15.6 32.1322H10.6Z" fill="#C2D2F4"/>
<path d="M10.6 32.1322L32 0.0991211L53.4 32.1322H48.4L32 7.83466L15.6 32.1322H10.6Z" fill="#B7C6E7"/>
<path d="M3.3 43.0413L10 33.1239H18.5L24 40.6611H18.9L23.2 46.9091L26.3 42.2479L19.7 33.1239H25.1L28.9 38.4793L32.5 33.1239H37.6L27.7 48H0L2.7 44.033H16.5L12.1 37.7851H17.1L16.4 36.7933H12.5L8.1 43.0413H3.3Z" fill="#C2D2F4"/>
<path d="M3.3 43.0413L10 33.1239H18.5L24 40.6611H18.9L23.2 46.9091L26.3 42.2479L19.7 33.1239H25.1L28.9 38.4793L32.5 33.1239H37.6L27.7 48H0L2.7 44.033H16.5L12.1 37.7851H17.1L16.4 36.7933H12.5L8.1 43.0413H3.3Z" fill="#B7C6E7"/>
<path d="M38.8 33.1239H43.9L42 36H45V39.9669H39.3L36.6 44.033H45.2V48H28.8L38.8 33.1239Z" fill="#C2D2F4"/>
<path d="M38.8 33.1239H43.9L42 36H45V39.9669H39.3L36.6 44.033H45.2V48H28.8L38.8 33.1239Z" fill="#B7C6E7"/>
<path d="M46.2 33.1239H54L56.5 36.7933H50.3V37.7851H57.1L59.7 41.6529H50.3V44.0328H61.3L64 48H46.2V33.1239Z" fill="#C2D2F4"/>
<path d="M46.2 33.1239H54L56.5 36.7933H50.3V37.7851H57.1L59.7 41.6529H50.3V44.0328H61.3L64 48H46.2V33.1239Z" fill="#B7C6E7"/>
<path d="M28.2525 13.895L13.4208 35.4609M20.4213 14.2011C23.3532 12.2116 37.9227 7.51045 39.1314 9.30397C41.1102 12.2402 26.181 23.0949 21.7256 23.7221M31.3388 21.1259C29.5524 22.4412 27.0952 25.8318 27.7629 26.6615C28.1253 27.112 31.953 24.4439 33.0629 23.4239M37.6477 19.2764C32.8433 22.6563 27.5196 29.9255 27.5196 31.5706C29.7956 30.6141 47.7728 25.7935 61.6665 27.2065M41.0217 19.213C40.3301 20.0068 35.7784 25.436 34.8493 27.0943M38.6216 21.3572C39.8793 20.0368 43.8735 18.0379 44.502 19.1382C44.915 20.4517 39.0976 23.5277 38.1284 22.9241C39.2462 23.9537 42.5879 25.4277 43.9922 25.9848M51.867 18.6515C49.6314 17.378 44.8842 23.6091 45.8825 25.1814C46.2127 25.7014 53.9066 20.8581 51.867 18.6515Z" stroke="#FF007F" stroke-width="1.5" stroke-linejoin="round"/>
</g>
<defs>
<clipPath id="clip0_1573_450">
<rect width="64" height="48" fill="white"/>
</clipPath>
</defs>
</svg>
