<svg width="26" height="26" viewBox="0 0 26 26" fill="none" xmlns="http://www.w3.org/2000/svg">
<path d="M21.4 7.8C23.2778 7.8 24.8 6.27777 24.8 4.4C24.8 2.52223 23.2778 1 21.4 1C19.5222 1 18 2.52223 18 4.4C18 6.27777 19.5222 7.8 21.4 7.8Z" fill="#FD466E" stroke="#F8FAFF" stroke-width="2"/>
<path d="M12 13.3999C12.5934 13.3999 13.1735 13.2239 13.6669 12.8942C14.1603 12.5645 14.5448 12.0959 14.7718 11.5476C14.9988 10.9993 15.0581 10.396 14.9422 9.81404C14.8264 9.23206 14.5405 8.69751 14.1208 8.27802C13.701 7.85852 13.1663 7.57293 12.5843 7.45735C12.0022 7.34178 11.399 7.40142 10.8508 7.62872C10.3027 7.85603 9.83427 8.2408 9.50482 8.73436C9.17537 9.22792 8.99969 9.80809 9.00001 10.4015C9.00128 11.1966 9.31781 11.9588 9.88019 12.5209C10.4426 13.0829 11.2049 13.3991 12 13.3999Z" fill="#C2D2F4"/>
<path d="M12 13.3999C12.5934 13.3999 13.1735 13.2239 13.6669 12.8942C14.1603 12.5645 14.5448 12.0959 14.7718 11.5476C14.9988 10.9993 15.0581 10.396 14.9422 9.81404C14.8264 9.23206 14.5405 8.69751 14.1208 8.27802C13.701 7.85852 13.1663 7.57293 12.5843 7.45735C12.0022 7.34178 11.399 7.40142 10.8508 7.62872C10.3027 7.85603 9.83427 8.2408 9.50482 8.73436C9.17537 9.22792 8.99969 9.80809 9.00001 10.4015C9.00128 11.1966 9.31781 11.9588 9.88019 12.5209C10.4426 13.0829 11.2049 13.3991 12 13.3999Z" fill="#B7C6E7"/>
<path d="M8.0164 20.5999H15.9836C16.3593 20.5999 16.7195 20.4593 16.9852 20.209C17.2508 19.9587 17.4 19.6192 17.4 19.2652V18.9599C17.3639 17.6328 16.7792 16.3716 15.7704 15.445C14.7617 14.5185 13.4087 13.9999 12 13.9999C10.5913 13.9999 9.23835 14.5185 8.22959 15.445C7.22082 16.3716 6.63607 17.6328 6.60001 18.9599V19.2652C6.60001 19.6192 6.74923 19.9587 7.01486 20.209C7.14638 20.3329 7.30252 20.4312 7.47437 20.4983C7.64621 20.5654 7.8304 20.5999 8.0164 20.5999Z" fill="#C2D2F4"/>
<path d="M8.0164 20.5999H15.9836C16.3593 20.5999 16.7195 20.4593 16.9852 20.209C17.2508 19.9587 17.4 19.6192 17.4 19.2652V18.9599C17.3639 17.6328 16.7792 16.3716 15.7704 15.445C14.7617 14.5185 13.4087 13.9999 12 13.9999C10.5913 13.9999 9.23835 14.5185 8.22959 15.445C7.22082 16.3716 6.63607 17.6328 6.60001 18.9599V19.2652C6.60001 19.6192 6.74923 19.9587 7.01486 20.209C7.14638 20.3329 7.30252 20.4312 7.47437 20.4983C7.64621 20.5654 7.8304 20.5999 8.0164 20.5999Z" fill="#B7C6E7"/>
<rect x="0.5" y="2.5" width="23" height="23" rx="11.5" stroke="#C2D2F4"/>
<rect x="0.5" y="2.5" width="23" height="23" rx="11.5" stroke="#B7C6E7"/>
</svg>
