<svg width="40" height="40" viewBox="0 0 40 40" fill="none" xmlns="http://www.w3.org/2000/svg">
<circle cx="20" cy="20" r="20" fill="#2B6BF3"/>
<path fillRule="evenodd" clip-rule="evenodd" d="M21.0789 25.9498C21.0789 25.9498 21.476 25.9077 21.6793 25.6988C21.8655 25.5075 21.859 25.1464 21.859 25.1464C21.859 25.1464 21.8343 23.4602 22.6531 23.2112C23.4601 22.9664 24.4964 24.8418 25.596 25.563C26.4267 26.1083 27.0573 25.9889 27.0573 25.9889L29.9959 25.9498C29.9959 25.9498 31.5325 25.8593 30.804 24.704C30.7437 24.6093 30.379 23.8491 28.6197 22.2874C26.7764 20.6526 27.0239 20.917 29.2427 18.0889C30.5942 16.3667 31.1343 15.3153 30.9654 14.8657C30.8051 14.4357 29.8108 14.5499 29.8108 14.5499L26.5031 14.5694C26.5031 14.5694 26.2578 14.5375 26.076 14.6414C25.8984 14.7433 25.7833 14.9809 25.7833 14.9809C25.7833 14.9809 25.2603 16.3132 24.562 17.4469C23.0889 19.8378 22.5003 19.9644 22.2593 19.8162C21.6987 19.4695 21.8386 18.4253 21.8386 17.6836C21.8386 15.3657 22.2066 14.3997 21.123 14.1497C20.7636 14.0664 20.4989 14.0118 19.5789 14.0026C18.3985 13.9913 17.4 14.0067 16.834 14.2711C16.4574 14.447 16.1669 14.84 16.3444 14.8626C16.5629 14.8904 17.0578 14.9902 17.3204 15.3318C17.6593 15.7731 17.6475 16.7628 17.6475 16.7628C17.6475 16.7628 17.8422 19.4911 17.1923 19.8296C16.7469 20.0621 16.1357 19.5878 14.8219 17.4181C14.1493 16.3071 13.6415 15.0787 13.6415 15.0787C13.6415 15.0787 13.5435 14.8493 13.3681 14.7258C13.1562 14.5766 12.8603 14.5303 12.8603 14.5303L9.71721 14.5499C9.71721 14.5499 9.24484 14.5622 9.0716 14.7587C8.91773 14.9326 9.05976 15.2937 9.05976 15.2937C9.05976 15.2937 11.5206 20.7987 14.3075 23.5734C16.8631 26.1165 19.764 25.9498 19.764 25.9498H21.0789Z" fill="white"/>
</svg>
