<svg width="40" height="40" viewBox="0 0 40 40" fill="none" xmlns="http://www.w3.org/2000/svg">
<circle cx="20" cy="20" r="20" fill="#2B6BF3"/>
<path fillRule="evenodd" clip-rule="evenodd" d="M28.5951 12.4777C29.5417 12.7405 30.2873 13.515 30.5402 14.4985C31 16.2809 31 20 31 20C31 20 31 23.719 30.5402 25.5015C30.2873 26.485 29.5417 27.2595 28.5951 27.5225C26.8796 28 20 28 20 28C20 28 13.1204 28 11.4048 27.5225C10.4581 27.2595 9.71262 26.485 9.45962 25.5015C9 23.719 9 20 9 20C9 20 9 16.2809 9.45962 14.4985C9.71262 13.515 10.4581 12.7405 11.4048 12.4777C13.1204 12 20 12 20 12C20 12 26.8796 12 28.5951 12.4777ZM18 17V24L23.5 20.5L18 17Z" fill="white"/>
</svg>
